<svg xmlns="http://www.w3.org/2000/svg" id="headset" onload="draw_headset()" class="solid" viewBox="-.50 -.54 1 1"><g stroke-width="0" class="contrast"><path d="&#10;        M -.36 -.24&#10;        A .33 .27 0 0 1 .36 -.24&#10;        L .33 -.15&#10;        A .33 .27 0 0 0 -.33 -.15&#10;    "/><path d="&#10;        M -.33 -.21&#10;        A .3 .24 0 0 0 -.33 .21&#10;        A .18 .3 0 0 0 -.33 -.21&#10;    "/><path d="&#10;        M .33 -.21&#10;        A .3 .24 0 0 1 .33 .21&#10;        A .18 .3 0 0 1 .33 -.21&#10;    "/><path d="&#10;        M .33 .21&#10;        A .3 .3 0 0 1 0 .42&#10;        L .03 .36&#10;        A .3 .3 0 0 0 .33 .21&#10;    "/><circle r=".06" cy=".39"/></g><style xmlns="http://www.w3.org/1999/xhtml" id="styles">
      .contrast {
            fill: #000;
      }

      div {
        width: 300px;
        background-color: white;
      }

      @media (prefers-color-scheme: dark) {
        .contrast {
            fill: #fff;
        }
        div {
          background-color: black;
        }
      }

      svg {
        height: auto();
        background-color: transparent;
      }
  </style></svg>