<svg xmlns="http://www.w3.org/2000/svg" id="headset" onload="draw_headset()" viewBox="-.50 -.50 1 1"><circle r=".5" cy="0" fill="white"/><g stroke-width="0" transform="scale(.9)" fill="black"><path d="&#10;        M -.35 -.23&#10;        A .35 .27 0 0 1 .35 -.23&#10;        L .33 -.13&#10;        A .33 .27 0 0 0 -.33 -.13&#10;    "/><path d="&#10;        M -.33 -.21&#10;        A .3 .24 0 0 0 -.33 .21&#10;        A .18 .3 0 0 0 -.33 -.21&#10;    "/><path d="&#10;        M .33 -.21&#10;        A .3 .24 0 0 1 .33 .21&#10;        A .18 .3 0 0 1 .33 -.21&#10;    "/><path d="&#10;        M .33 .21&#10;        A .3 .3 0 0 1 0 .42&#10;        L .03 .36&#10;        A .3 .3 0 0 0 .33 .21&#10;    "/><circle r=".06" cy=".39"/></g><style xmlns="http://www.w3.org/1999/xhtml" id="styles">
      .contrast {
            fill: #000;
      }

      div {
        width: 300px;
        background-color: white;
      }

      @media (prefers-color-scheme: dark) {
        change-with-theme.contrast {
            fill: #fff;
        }
        change-with-theme.div {
          background-color: black;
        }
      }

      svg {
        height: auto();
        background-color: transparent;
      }
  </style></svg>