<svg xmlns="http://www.w3.org/2000/svg" id="lockup" onload="draw_lockup()" class="change-with-theme" viewBox="-.50 -.25 1.075 .50"><g stroke-width="0" transform="scale(.5) translate(-.5 .04)"><path d="&#10;        M -.35 -.23&#10;        A .35 .27 0 0 1 .35 -.23&#10;        L .33 -.13&#10;        A .33 .27 0 0 0 -.33 -.13&#10;    "/><path d="&#10;        M -.33 -.21&#10;        A .3 .24 0 0 0 -.33 .21&#10;        A .18 .3 0 0 0 -.33 -.21&#10;    "/><path d="&#10;        M .33 -.21&#10;        A .3 .24 0 0 1 .33 .21&#10;        A .18 .3 0 0 1 .33 -.21&#10;    "/><path d="&#10;        M .33 .21&#10;        A .3 .3 0 0 1 0 .42&#10;        L .03 .36&#10;        A .3 .3 0 0 0 .33 .21&#10;    "/><circle r=".06" cy=".39"/></g><text class="contrast" x="-0.25" y="0.04" style="font: 0.2px &quot;proxima nova&quot;; dominant-baseline: middle; text-anchor: middle;">AV</text><text class="contrast" x="0.025" y="0.04" style="font: 0.2px &quot;proxima nova&quot;; dominant-baseline: middle;">Scribe</text><style xmlns="http://www.w3.org/1999/xhtml" id="styles">
      .contrast {
            fill: #000;
      }

      div {
        width: 300px;
        background-color: white;
      }

      @media (prefers-color-scheme: dark) {
        change-with-theme.contrast {
            fill: #fff;
        }
        change-with-theme.div {
          background-color: black;
        }
      }

      svg {
        height: auto();
        background-color: transparent;
      }
  </style></svg>