<svg id="blah" xmlns="http://www.w3.org/2000/svg" viewBox="-50 -50 100 100">
    <defs>
        <g id="headset" stroke-width="0">
            <path
                d="
                M -.1 -.08
                A .10 .10 0 0 1 .1 -.08
                L .1 -.05
                A .10 .09 0 0 0 -.1 -.05
                "
            />
            <path
                d="
                M -.1 -.07
                A .10 .08 0 0 0 -.1 .07
                "
            />
            <path
                d="
                M -.1 -.07
                A .05 .1 0 0 1 -.1 .07
                "
            />
            <path
                d="
                M .1 -.07
                A .10 .08 0 0 1 .1 .07
                "
            />
            <path
                d="
                M .1 -.07
                A .05 .1 0 0 0 .1 .07
                "
            />
            <path
                d="
                M .1 .07
                A .10 .10 0 0 1 .01 .13
                L .01 .11
                A .10 .10 0 0 0 .1 .07
                "
            />
            <circle r=".02" cy=".12"/>
        </g>
    </defs>
    <g>
        <use href="#headset" y=".02" transform="scale(250)"/>
    </g>
    <!-- Text -->
    <style>
        path, circle, .av-font, .scribe-font {
            fill: #000;
        }
        svg {
            background-color: "transparent";
        }=
    </style>
</svg>
