<svg id="blah" xmlns="http://www.w3.org/2000/svg" viewBox="-50 -54 100 100">
    <defs>
        <g id="headset" stroke-width="0">
            <path
                d="
                M -.36 -.24
                A .33 .27 0 0 1 .36 -.24
                L .33 -.15
                A .33 .27 0 0 0 -.33 -.15
                "
            />
            <path
                d="
                M -.33 -.21
                A .3 .24 0 0 0 -.33 .21
                A .18 .3 0 0 0 -.33 -.21
                "
            />
            <path
                d="
                M .33 -.21
                A .3 .24 0 0 1 .33 .21
                A .18 .3 0 0 1 .33 -.21
                "
            />
            <path
                d="
                M .33 .21
                A .3 .3 0 0 1 0 .42
                L .03 .36
                A .3 .3 0 0 0 .33 .21
                "
            />
            <circle r=".06" cy=".39"/>
        </g>
    </defs>
    <g>
        <use id="headset-icon" href="#headset" transform="scale(100)"/>
    </g>
</svg>
