<svg xmlns="http://www.w3.org/2000/svg" id="logo" onload="draw_logo()" class="solid" viewBox="-.40 -.40 .80 .80" width=".1em" height=".1em"><defs><radialGradient id="wakeGradient" cx="0" cy="-0.4" r="0.8" fx="0" fy="-0.15" gradientUnits="userSpaceOnUse">
      <stop offset="25%" stop-color="rgba(0,100,150,0)"/>
      <stop offset="50%" stop-color="rgba(0,100,150,1)"/>
    </radialGradient><linearGradient id="bladeGradient" gradientTransform="rotate(90)">
        <stop offset="0%" stop-color="white" stop-opacity="1.0"/>
        <stop offset="100%" stop-color="rgba(50,50,50)" stop-opacity="1.0"/>
    </linearGradient><filter id="spinner-filter"><feGaussianBlur in="SourceGraphic" stdDeviation="0.002"/></filter><mask id="spinner-mask"><circle fill="white" r="0.05"/></mask></defs><path d="&#10;        M -.40 0&#10;        A .40 .40 0 0 1 0 -.40&#10;        L 0 0&#10;    " fill="url(#wakeGradient)"/><path d="&#10;        M -.40 0&#10;        A .40 .40 0 0 1 0 -.40&#10;        L 0 0&#10;    " fill="url(#wakeGradient)" transform="rotate(180)"/><path d="&#10;            M -.40 .0&#10;            A .20 .02 0 0 0 0 0&#10;            A .20 .02 0 0 0 -.40 0&#10;    " fill="url(#bladeGradient)"/><path d="&#10;            M -.40 .0&#10;            A .20 .02 0 0 0 0 0&#10;            A .20 .02 0 0 0 -.40 0&#10;    " fill="url(#bladeGradient)" transform="rotate(180)"/><g mask="url(#spinner-mask)" filter="url(#spinner-filter)"><path d="M0,0 L-0.035355339059327376,-0.03535533905932738 A0.05,0.05 0 0,1 -0.03146601955249186,-0.03885729807284855 Z" fill="rgb(255,255,255)"/><path d="M0,0 L-0.03146601955249186,-0.03885729807284855 A0.05,0.05 0 0,1 -0.02723195175075134,-0.041933528397271214 Z" fill="rgb(246.5,246.5,246.5)"/><path d="M0,0 L-0.027231951750751354,-0.0419335283972712 A0.05,0.05 0 0,1 -0.022699524986977335,-0.0445503262094184 Z" fill="rgb(238,238,238)"/><path d="M0,0 L-0.022699524986977335,-0.0445503262094184 A0.05,0.05 0 0,1 -0.017918397477265015,-0.04667902132486009 Z" fill="rgb(229.5,229.5,229.5)"/><path d="M0,0 L-0.017918397477265015,-0.04667902132486009 A0.05,0.05 0 0,1 -0.012940952255126044,-0.04829629131445342 Z" fill="rgb(221,221,221)"/><path d="M0,0 L-0.012940952255126044,-0.04829629131445342 A0.05,0.05 0 0,1 -0.007821723252011551,-0.049384417029756884 Z" fill="rgb(212.5,212.5,212.5)"/><path d="M0,0 L-0.007821723252011551,-0.049384417029756884 A0.05,0.05 0 0,1 -0.0026167978121472034,-0.04993147673772869 Z" fill="rgb(204,204,204)"/><path d="M0,0 L-0.002616797812147192,-0.04993147673772869 A0.05,0.05 0 0,1 0.0026167978121471873,-0.04993147673772869 Z" fill="rgb(195.5,195.5,195.5)"/><path d="M0,0 L0.0026167978121471986,-0.04993147673772869 A0.05,0.05 0 0,1 0.007821723252011546,-0.04938441702975689 Z" fill="rgb(187,187,187)"/><path d="M0,0 L0.007821723252011558,-0.049384417029756884 A0.05,0.05 0 0,1 0.012940952255126049,-0.04829629131445341 Z" fill="rgb(178.5,178.5,178.5)"/><path d="M0,0 L0.012940952255126049,-0.04829629131445341 A0.05,0.05 0 0,1 0.01791839747726502,-0.04667902132486009 Z" fill="rgb(170,170,170)"/><path d="M0,0 L0.01791839747726502,-0.04667902132486009 A0.05,0.05 0 0,1 0.022699524986977342,-0.044550326209418394 Z" fill="rgb(161.5,161.5,161.5)"/><path d="M0,0 L0.022699524986977342,-0.044550326209418394 A0.05,0.05 0 0,1 0.02723195175075136,-0.0419335283972712 Z" fill="rgb(153,153,153)"/><path d="M0,0 L0.02723195175075136,-0.0419335283972712 A0.05,0.05 0 0,1 0.031466019552491876,-0.038857298072848545 Z" fill="rgb(144.5,144.5,144.5)"/><path d="M0,0 L0.031466019552491876,-0.038857298072848545 A0.05,0.05 0 0,1 0.03535533905932738,-0.035355339059327376 Z" fill="rgb(136,136,136)"/><path d="M0,0 L0.03535533905932738,-0.035355339059327376 A0.05,0.05 0 0,1 0.038857298072848545,-0.03146601955249187 Z" fill="rgb(127.5,127.5,127.5)"/><path d="M0,0 L0.038857298072848545,-0.031466019552491876 A0.05,0.05 0 0,1 0.04193352839727121,-0.027231951750751354 Z" fill="rgb(119,119,119)"/><path d="M0,0 L0.04193352839727121,-0.027231951750751354 A0.05,0.05 0 0,1 0.0445503262094184,-0.022699524986977342 Z" fill="rgb(110.5,110.5,110.5)"/><path d="M0,0 L0.0445503262094184,-0.022699524986977342 A0.05,0.05 0 0,1 0.04667902132486009,-0.01791839747726502 Z" fill="rgb(102,102,102)"/><path d="M0,0 L0.04667902132486009,-0.017918397477265008 A0.05,0.05 0 0,1 0.04829629131445342,-0.012940952255126035 Z" fill="rgb(93.5,93.5,93.5)"/><path d="M0,0 L0.04829629131445342,-0.012940952255126035 A0.05,0.05 0 0,1 0.04938441702975689,-0.007821723252011541 Z" fill="rgb(85,85,85)"/><path d="M0,0 L0.04938441702975689,-0.007821723252011543 A0.05,0.05 0 0,1 0.04993147673772869,-0.0026167978121471903 Z" fill="rgb(76.5,76.5,76.5)"/><path d="M0,0 L0.04993147673772869,-0.002616797812147191 A0.05,0.05 0 0,1 0.04993147673772869,0.002616797812147192 Z" fill="rgb(68,68,68)"/><path d="M0,0 L0.04993147673772869,0.002616797812147191 A0.05,0.05 0 0,1 0.04938441702975689,0.007821723252011544 Z" fill="rgb(59.5,59.5,59.5)"/><path d="M0,0 L0.04938441702975689,0.007821723252011543 A0.05,0.05 0 0,1 0.04829629131445342,0.012940952255126037 Z" fill="rgb(51,51,51)"/><path d="M0,0 L0.04829629131445342,0.01294095225512604 A0.05,0.05 0 0,1 0.04667902132486009,0.017918397477265015 Z" fill="rgb(42.5,42.5,42.5)"/><path d="M0,0 L0.04667902132486009,0.017918397477265015 A0.05,0.05 0 0,1 0.0445503262094184,0.02269952498697734 Z" fill="rgb(34,34,34)"/><path d="M0,0 L0.0445503262094184,0.02269952498697734 A0.05,0.05 0 0,1 0.04193352839727121,0.027231951750751354 Z" fill="rgb(25.5,25.5,25.5)"/><path d="M0,0 L0.04193352839727121,0.027231951750751354 A0.05,0.05 0 0,1 0.038857298072848545,0.031466019552491876 Z" fill="rgb(17,17,17)"/><path d="M0,0 L0.038857298072848545,0.031466019552491876 A0.05,0.05 0 0,1 0.035355339059327376,0.03535533905932738 Z" fill="rgb(8.5,8.5,8.5)"/><path d="M0,0 L0.03535533905932738,0.035355339059327376 A0.05,0.05 0 0,1 0.031466019552491876,0.038857298072848545 Z" fill="rgb(0,0,0)"/><path d="M0,0 L0.031466019552491876,0.038857298072848545 A0.05,0.05 0 0,1 0.02723195175075136,0.0419335283972712 Z" fill="rgb(8.5,8.5,8.5)"/><path d="M0,0 L0.02723195175075136,0.0419335283972712 A0.05,0.05 0 0,1 0.022699524986977342,0.044550326209418394 Z" fill="rgb(17,17,17)"/><path d="M0,0 L0.022699524986977342,0.044550326209418394 A0.05,0.05 0 0,1 0.01791839747726502,0.04667902132486009 Z" fill="rgb(25.5,25.5,25.5)"/><path d="M0,0 L0.01791839747726502,0.04667902132486009 A0.05,0.05 0 0,1 0.012940952255126049,0.04829629131445341 Z" fill="rgb(34,34,34)"/><path d="M0,0 L0.012940952255126049,0.04829629131445341 A0.05,0.05 0 0,1 0.007821723252011558,0.049384417029756884 Z" fill="rgb(42.5,42.5,42.5)"/><path d="M0,0 L0.007821723252011546,0.04938441702975689 A0.05,0.05 0 0,1 0.0026167978121471986,0.04993147673772869 Z" fill="rgb(51,51,51)"/><path d="M0,0 L0.0026167978121471986,0.04993147673772869 A0.05,0.05 0 0,1 -0.0026167978121471812,0.04993147673772869 Z" fill="rgb(59.5,59.5,59.5)"/><path d="M0,0 L-0.0026167978121471812,0.04993147673772869 A0.05,0.05 0 0,1 -0.00782172325201153,0.04938441702975689 Z" fill="rgb(68,68,68)"/><path d="M0,0 L-0.007821723252011551,0.049384417029756884 A0.05,0.05 0 0,1 -0.012940952255126044,0.04829629131445342 Z" fill="rgb(76.5,76.5,76.5)"/><path d="M0,0 L-0.012940952255126021,0.04829629131445343 A0.05,0.05 0 0,1 -0.017918397477264994,0.0466790213248601 Z" fill="rgb(85,85,85)"/><path d="M0,0 L-0.017918397477265015,0.04667902132486009 A0.05,0.05 0 0,1 -0.022699524986977335,0.0445503262094184 Z" fill="rgb(93.5,93.5,93.5)"/><path d="M0,0 L-0.022699524986977335,0.0445503262094184 A0.05,0.05 0 0,1 -0.027231951750751354,0.0419335283972712 Z" fill="rgb(102,102,102)"/><path d="M0,0 L-0.027231951750751354,0.0419335283972712 A0.05,0.05 0 0,1 -0.03146601955249188,0.038857298072848545 Z" fill="rgb(110.5,110.5,110.5)"/><path d="M0,0 L-0.03146601955249186,0.03885729807284855 A0.05,0.05 0 0,1 -0.035355339059327376,0.03535533905932738 Z" fill="rgb(119,119,119)"/><path d="M0,0 L-0.035355339059327376,0.03535533905932738 A0.05,0.05 0 0,1 -0.038857298072848545,0.03146601955249187 Z" fill="rgb(127.5,127.5,127.5)"/><path d="M0,0 L-0.038857298072848545,0.03146601955249187 A0.05,0.05 0 0,1 -0.041933528397271214,0.02723195175075135 Z" fill="rgb(136,136,136)"/><path d="M0,0 L-0.0419335283972712,0.027231951750751368 A0.05,0.05 0 0,1 -0.044550326209418394,0.022699524986977346 Z" fill="rgb(144.5,144.5,144.5)"/><path d="M0,0 L-0.044550326209418394,0.022699524986977346 A0.05,0.05 0 0,1 -0.04667902132486009,0.01791839747726501 Z" fill="rgb(153,153,153)"/><path d="M0,0 L-0.046679021324860084,0.017918397477265032 A0.05,0.05 0 0,1 -0.04829629131445341,0.01294095225512605 Z" fill="rgb(161.5,161.5,161.5)"/><path d="M0,0 L-0.04829629131445341,0.01294095225512605 A0.05,0.05 0 0,1 -0.049384417029756884,0.00782172325201155 Z" fill="rgb(170,170,170)"/><path d="M0,0 L-0.049384417029756884,0.00782172325201155 A0.05,0.05 0 0,1 -0.04993147673772869,0.0026167978121471903 Z" fill="rgb(178.5,178.5,178.5)"/><path d="M0,0 L-0.04993147673772869,0.002616797812147213 A0.05,0.05 0 0,1 -0.04993147673772869,-0.002616797812147178 Z" fill="rgb(187,187,187)"/><path d="M0,0 L-0.04993147673772869,-0.002616797812147178 A0.05,0.05 0 0,1 -0.04938441702975689,-0.007821723252011538 Z" fill="rgb(195.5,195.5,195.5)"/><path d="M0,0 L-0.04938441702975689,-0.007821723252011538 A0.05,0.05 0 0,1 -0.04829629131445342,-0.01294095225512604 Z" fill="rgb(204,204,204)"/><path d="M0,0 L-0.04829629131445341,-0.01294095225512606 A0.05,0.05 0 0,1 -0.04667902132486008,-0.017918397477265043 Z" fill="rgb(212.5,212.5,212.5)"/><path d="M0,0 L-0.04667902132486009,-0.017918397477265022 A0.05,0.05 0 0,1 -0.04455032620941839,-0.022699524986977356 Z" fill="rgb(221,221,221)"/><path d="M0,0 L-0.04455032620941841,-0.022699524986977315 A0.05,0.05 0 0,1 -0.041933528397271214,-0.02723195175075134 Z" fill="rgb(229.5,229.5,229.5)"/><path d="M0,0 L-0.04193352839727121,-0.027231951750751354 A0.05,0.05 0 0,1 -0.038857298072848545,-0.03146601955249188 Z" fill="rgb(238,238,238)"/><path d="M0,0 L-0.038857298072848545,-0.03146601955249188 A0.05,0.05 0 0,1 -0.03535533905932737,-0.03535533905932738 Z" fill="rgb(246.5,246.5,246.5)"/></g><g stroke-width="0" class="contrast" transform="scale(.3) translate(.3 -.6)"><path d="&#10;        M -.36 -.24&#10;        A .33 .27 0 0 1 .36 -.24&#10;        L .33 -.15&#10;        A .33 .27 0 0 0 -.33 -.15&#10;    "/><path d="&#10;        M -.33 -.21&#10;        A .3 .24 0 0 0 -.33 .21&#10;        A .18 .3 0 0 0 -.33 -.21&#10;    "/><path d="&#10;        M .33 -.21&#10;        A .3 .24 0 0 1 .33 .21&#10;        A .18 .3 0 0 1 .33 -.21&#10;    "/><path d="&#10;        M .33 .21&#10;        A .3 .3 0 0 1 0 .42&#10;        L .03 .36&#10;        A .3 .3 0 0 0 .33 .21&#10;    "/><circle r=".06" cy=".39"/></g><text x="0.09" y="-0.166" class="contrast" style="font: 0.12px 'proxima nova'; dominant-baseline: middle; text-anchor: middle;">AV</text><text x="-0.3" y="0.2" class="contrast" style="font: 0.16px &quot;proxima nova&quot;; dominant-baseline: middle;">Scribe</text><style xmlns="http://www.w3.org/1999/xhtml" id="styles">
      .contrast {
            fill: #000;
      }

      div {
        width: 300px;
        background-color: white;
      }

      @media (prefers-color-scheme: dark) {
        .contrast {
            fill: #fff;
        }
        div {
          background-color: black;
        }
      }

      svg {
        background-color: transparent;
      }
  </style></svg>